STARTFONT 2.1
FONT psf
SIZE 16 75 75
FONTBOUNDINGBOX 8 16 0 -4
STARTPROPERTIES 3
FONT_DESCENT 4
FONT_ASCENT 12
DEFAULT_CHAR 255
ENDPROPERTIES
CHARS 256
STARTCHAR C0000
ENCODING 0
SWIDTH 666 0
DWIDTH 8 0
BBX 8 16 0 -4
BITMAP
00
00
00
04
00
00
00
00
00
00
00
00
00
00
00
00
ENDCHAR
STARTCHAR C0001
ENCODING 1
SWIDTH 666 0
DWIDTH 8 0
BBX 8 16 0 -4
BITMAP
00
01
7f
41
20
10
00
00
3e
41
49
41
3e
00
00
00
ENDCHAR
STARTCHAR C0002
ENCODING 2
SWIDTH 666 0
DWIDTH 8 0
BBX 8 16 0 -4
BITMAP
00
31
49
45
43
21
00
00
3e
41
49
41
3e
00
00
00
ENDCHAR
STARTCHAR C0003
ENCODING 3
SWIDTH 666 0
DWIDTH 8 0
BBX 8 16 0 -4
BITMAP
00
36
49
49
41
22
00
00
3e
41
49
41
3e
00
00
00
ENDCHAR
STARTCHAR C0004
ENCODING 4
SWIDTH 666 0
DWIDTH 8 0
BBX 8 16 0 -4
BITMAP
00
04
7f
44
24
1c
00
00
3e
41
49
41
3e
00
00
00
ENDCHAR
STARTCHAR C0005
ENCODING 5
SWIDTH 666 0
DWIDTH 8 0
BBX 8 16 0 -4
BITMAP
00
46
49
49
49
79
00
00
3e
41
49
41
3e
00
00
00
ENDCHAR
STARTCHAR C0006
ENCODING 6
SWIDTH 666 0
DWIDTH 8 0
BBX 8 16 0 -4
BITMAP
00
46
49
49
29
1e
00
00
3e
41
49
41
3e
00
00
00
ENDCHAR
STARTCHAR C0007
ENCODING 7
SWIDTH 666 0
DWIDTH 8 0
BBX 8 16 0 -4
BITMAP
00
70
48
44
42
41
00
00
3e
41
49
41
3e
00
00
00
ENDCHAR
STARTCHAR C0008
ENCODING 8
SWIDTH 666 0
DWIDTH 8 0
BBX 8 16 0 -4
BITMAP
00
3f
44
44
44
3f
00
00
3e
41
49
41
3e
00
00
00
ENDCHAR
STARTCHAR C0009
ENCODING 9
SWIDTH 666 0
DWIDTH 8 0
BBX 8 16 0 -4
BITMAP
00
00
00
04
00
00
00
00
00
00
00
00
00
00
00
00
ENDCHAR
STARTCHAR C000a
ENCODING 10
SWIDTH 666 0
DWIDTH 8 0
BBX 8 16 0 -4
BITMAP
00
00
00
04
00
00
00
00
00
00
00
00
00
00
00
00
ENDCHAR
STARTCHAR C000b
ENCODING 11
SWIDTH 666 0
DWIDTH 8 0
BBX 8 16 0 -4
BITMAP
00
36
49
49
49
7f
00
00
3e
41
49
41
3e
00
00
00
ENDCHAR
STARTCHAR C000c
ENCODING 12
SWIDTH 666 0
DWIDTH 8 0
BBX 8 16 0 -4
BITMAP
00
22
41
41
41
3e
00
00
3e
41
49
41
3e
00
00
00
ENDCHAR
STARTCHAR C000d
ENCODING 13
SWIDTH 666 0
DWIDTH 8 0
BBX 8 16 0 -4
BITMAP
00
3e
41
41
41
7f
00
00
3e
41
49
41
3e
00
00
00
ENDCHAR
STARTCHAR C000e
ENCODING 14
SWIDTH 666 0
DWIDTH 8 0
BBX 8 16 0 -4
BITMAP
00
41
49
49
49
7f
00
00
3e
41
49
41
3e
00
00
00
ENDCHAR
STARTCHAR C000f
ENCODING 15
SWIDTH 666 0
DWIDTH 8 0
BBX 8 16 0 -4
BITMAP
00
40
48
48
48
7f
00
00
3e
41
49
41
3e
00
00
00
ENDCHAR
STARTCHAR C0010
ENCODING 16
SWIDTH 666 0
DWIDTH 8 0
BBX 8 16 0 -4
BITMAP
00
3e
41
49
41
3e
00
00
01
7f
41
20
10
00
00
00
ENDCHAR
STARTCHAR C0011
ENCODING 17
SWIDTH 666 0
DWIDTH 8 0
BBX 8 16 0 -4
BITMAP
00
01
7f
41
20
10
00
00
01
7f
41
20
10
00
00
00
ENDCHAR
STARTCHAR C0012
ENCODING 18
SWIDTH 666 0
DWIDTH 8 0
BBX 8 16 0 -4
BITMAP
00
31
49
45
43
21
00
00
01
7f
41
20
10
00
00
00
ENDCHAR
STARTCHAR C0013
ENCODING 19
SWIDTH 666 0
DWIDTH 8 0
BBX 8 16 0 -4
BITMAP
00
36
49
49
41
22
00
00
01
7f
41
20
10
00
00
00
ENDCHAR
STARTCHAR C0014
ENCODING 20
SWIDTH 666 0
DWIDTH 8 0
BBX 8 16 0 -4
BITMAP
00
04
7f
44
24
1c
00
00
01
7f
41
20
10
00
00
00
ENDCHAR
STARTCHAR C0015
ENCODING 21
SWIDTH 666 0
DWIDTH 8 0
BBX 8 16 0 -4
BITMAP
00
46
49
49
49
79
00
00
01
7f
41
20
10
00
00
00
ENDCHAR
STARTCHAR C0016
ENCODING 22
SWIDTH 666 0
DWIDTH 8 0
BBX 8 16 0 -4
BITMAP
00
46
49
49
29
1e
00
00
01
7f
41
20
10
00
00
00
ENDCHAR
STARTCHAR C0017
ENCODING 23
SWIDTH 666 0
DWIDTH 8 0
BBX 8 16 0 -4
BITMAP
00
70
48
44
42
41
00
00
01
7f
41
20
10
00
00
00
ENDCHAR
STARTCHAR C0018
ENCODING 24
SWIDTH 666 0
DWIDTH 8 0
BBX 8 16 0 -4
BITMAP
00
36
49
49
49
36
00
00
01
7f
41
20
10
00
00
00
ENDCHAR
STARTCHAR C0019
ENCODING 25
SWIDTH 666 0
DWIDTH 8 0
BBX 8 16 0 -4
BITMAP
00
3e
49
49
49
31
00
00
01
7f
41
20
10
00
00
00
ENDCHAR
STARTCHAR C001a
ENCODING 26
SWIDTH 666 0
DWIDTH 8 0
BBX 8 16 0 -4
BITMAP
00
3f
44
44
44
3f
00
00
01
7f
41
20
10
00
00
00
ENDCHAR
STARTCHAR C001b
ENCODING 27
SWIDTH 666 0
DWIDTH 8 0
BBX 8 16 0 -4
BITMAP
00
36
49
49
49
7f
00
00
01
7f
41
20
10
00
00
00
ENDCHAR
STARTCHAR C001c
ENCODING 28
SWIDTH 666 0
DWIDTH 8 0
BBX 8 16 0 -4
BITMAP
00
22
41
41
41
3e
00
00
01
7f
41
20
10
00
00
00
ENDCHAR
STARTCHAR C001d
ENCODING 29
SWIDTH 666 0
DWIDTH 8 0
BBX 8 16 0 -4
BITMAP
00
3e
41
41
41
7f
00
00
01
7f
41
20
10
00
00
00
ENDCHAR
STARTCHAR C001e
ENCODING 30
SWIDTH 666 0
DWIDTH 8 0
BBX 8 16 0 -4
BITMAP
00
41
49
49
49
7f
00
00
01
7f
41
20
10
00
00
00
ENDCHAR
STARTCHAR C001f
ENCODING 31
SWIDTH 666 0
DWIDTH 8 0
BBX 8 16 0 -4
BITMAP
00
40
48
48
48
7f
00
00
01
7f
41
20
10
00
00
00
ENDCHAR
STARTCHAR C0020
ENCODING 32
SWIDTH 666 0
DWIDTH 8 0
BBX 8 16 0 -4
BITMAP
00
00
00
00
00
00
00
00
00
00
00
00
00
00
00
00
ENDCHAR
STARTCHAR C0021
ENCODING 33
SWIDTH 666 0
DWIDTH 8 0
BBX 8 16 0 -4
BITMAP
00
08
08
08
08
08
08
00
00
08
00
00
00
00
00
00
ENDCHAR
STARTCHAR C0022
ENCODING 34
SWIDTH 666 0
DWIDTH 8 0
BBX 8 16 0 -4
BITMAP
00
24
24
24
00
00
00
00
00
00
00
00
00
00
00
00
ENDCHAR
STARTCHAR C0023
ENCODING 35
SWIDTH 666 0
DWIDTH 8 0
BBX 8 16 0 -4
BITMAP
00
14
14
7f
14
14
14
7f
14
14
00
00
00
00
00
00
ENDCHAR
STARTCHAR C0024
ENCODING 36
SWIDTH 666 0
DWIDTH 8 0
BBX 8 16 0 -4
BITMAP
00
41
22
1c
22
22
22
1c
22
41
00
00
00
00
00
00
ENDCHAR
STARTCHAR C0025
ENCODING 37
SWIDTH 666 0
DWIDTH 8 0
BBX 8 16 0 -4
BITMAP
00
20
51
22
04
08
10
22
45
02
00
00
00
00
00
00
ENDCHAR
STARTCHAR C0026
ENCODING 38
SWIDTH 666 0
DWIDTH 8 0
BBX 8 16 0 -4
BITMAP
00
38
44
44
38
30
48
45
42
3d
00
00
00
00
00
00
ENDCHAR
STARTCHAR C0027
ENCODING 39
SWIDTH 666 0
DWIDTH 8 0
BBX 8 16 0 -4
BITMAP
00
0c
0c
08
10
00
00
00
00
00
00
00
00
00
00
00
ENDCHAR
STARTCHAR C0028
ENCODING 40
SWIDTH 666 0
DWIDTH 8 0
BBX 8 16 0 -4
BITMAP
00
04
08
10
10
10
10
10
08
04
00
00
00
00
00
00
ENDCHAR
STARTCHAR C0029
ENCODING 41
SWIDTH 666 0
DWIDTH 8 0
BBX 8 16 0 -4
BITMAP
00
10
08
04
04
04
04
04
08
10
00
00
00
00
00
00
ENDCHAR
STARTCHAR C002a
ENCODING 42
SWIDTH 666 0
DWIDTH 8 0
BBX 8 16 0 -4
BITMAP
00
00
08
49
2a
1c
2a
49
08
00
00
00
00
00
00
00
ENDCHAR
STARTCHAR C002b
ENCODING 43
SWIDTH 666 0
DWIDTH 8 0
BBX 8 16 0 -4
BITMAP
00
00
08
08
08
7f
08
08
08
00
00
00
00
00
00
00
ENDCHAR
STARTCHAR C002c
ENCODING 44
SWIDTH 666 0
DWIDTH 8 0
BBX 8 16 0 -4
BITMAP
00
00
00
00
00
00
00
00
0c
0c
08
10
00
00
00
00
ENDCHAR
STARTCHAR C002d
ENCODING 45
SWIDTH 666 0
DWIDTH 8 0
BBX 8 16 0 -4
BITMAP
00
00
00
00
00
3e
00
00
00
00
00
00
00
00
00
00
ENDCHAR
STARTCHAR C002e
ENCODING 46
SWIDTH 666 0
DWIDTH 8 0
BBX 8 16 0 -4
BITMAP
00
00
00
00
00
00
00
00
0c
0c
00
00
00
00
00
00
ENDCHAR
STARTCHAR C002f
ENCODING 47
SWIDTH 666 0
DWIDTH 8 0
BBX 8 16 0 -4
BITMAP
00
00
01
02
04
08
10
20
40
00
00
00
00
00
00
00
ENDCHAR
STARTCHAR C0030
ENCODING 48
SWIDTH 666 0
DWIDTH 8 0
BBX 8 16 0 -4
BITMAP
00
3e
41
41
41
49
41
41
41
3e
00
00
00
00
00
00
ENDCHAR
STARTCHAR C0031
ENCODING 49
SWIDTH 666 0
DWIDTH 8 0
BBX 8 16 0 -4
BITMAP
00
04
0c
14
24
04
04
04
04
04
00
00
00
00
00
00
ENDCHAR
STARTCHAR C0032
ENCODING 50
SWIDTH 666 0
DWIDTH 8 0
BBX 8 16 0 -4
BITMAP
00
3e
41
01
01
06
18
20
40
7f
00
00
00
00
00
00
ENDCHAR
STARTCHAR C0033
ENCODING 51
SWIDTH 666 0
DWIDTH 8 0
BBX 8 16 0 -4
BITMAP
00
3e
41
01
01
1e
01
01
41
3e
00
00
00
00
00
00
ENDCHAR
STARTCHAR C0034
ENCODING 52
SWIDTH 666 0
DWIDTH 8 0
BBX 8 16 0 -4
BITMAP
00
04
08
10
20
44
44
7f
04
04
00
00
00
00
00
00
ENDCHAR
STARTCHAR C0035
ENCODING 53
SWIDTH 666 0
DWIDTH 8 0
BBX 8 16 0 -4
BITMAP
00
7e
40
40
7c
02
01
01
42
3c
00
00
00
00
00
00
ENDCHAR
STARTCHAR C0036
ENCODING 54
SWIDTH 666 0
DWIDTH 8 0
BBX 8 16 0 -4
BITMAP
00
1e
20
40
40
7e
41
41
41
3e
00
00
00
00
00
00
ENDCHAR
STARTCHAR C0037
ENCODING 55
SWIDTH 666 0
DWIDTH 8 0
BBX 8 16 0 -4
BITMAP
00
7f
01
02
04
08
10
10
10
10
00
00
00
00
00
00
ENDCHAR
STARTCHAR C0038
ENCODING 56
SWIDTH 666 0
DWIDTH 8 0
BBX 8 16 0 -4
BITMAP
00
3e
41
41
41
3e
41
41
41
3e
00
00
00
00
00
00
ENDCHAR
STARTCHAR C0039
ENCODING 57
SWIDTH 666 0
DWIDTH 8 0
BBX 8 16 0 -4
BITMAP
00
3e
41
41
41
3f
01
01
02
3c
00
00
00
00
00
00
ENDCHAR
STARTCHAR C003a
ENCODING 58
SWIDTH 666 0
DWIDTH 8 0
BBX 8 16 0 -4
BITMAP
00
00
00
00
0c
0c
00
00
0c
0c
00
00
00
00
00
00
ENDCHAR
STARTCHAR C003b
ENCODING 59
SWIDTH 666 0
DWIDTH 8 0
BBX 8 16 0 -4
BITMAP
00
00
00
00
0c
0c
00
00
0c
0c
08
10
00
00
00
00
ENDCHAR
STARTCHAR C003c
ENCODING 60
SWIDTH 666 0
DWIDTH 8 0
BBX 8 16 0 -4
BITMAP
00
02
04
08
10
20
10
08
04
02
00
00
00
00
00
00
ENDCHAR
STARTCHAR C003d
ENCODING 61
SWIDTH 666 0
DWIDTH 8 0
BBX 8 16 0 -4
BITMAP
00
00
00
00
7e
00
00
7e
00
00
00
00
00
00
00
00
ENDCHAR
STARTCHAR C003e
ENCODING 62
SWIDTH 666 0
DWIDTH 8 0
BBX 8 16 0 -4
BITMAP
00
20
10
08
04
02
04
08
10
20
00
00
00
00
00
00
ENDCHAR
STARTCHAR C003f
ENCODING 63
SWIDTH 666 0
DWIDTH 8 0
BBX 8 16 0 -4
BITMAP
00
3e
41
01
02
04
08
08
00
08
00
00
00
00
00
00
ENDCHAR
STARTCHAR C0040
ENCODING 64
SWIDTH 666 0
DWIDTH 8 0
BBX 8 16 0 -4
BITMAP
00
3c
42
01
39
45
45
45
45
3a
00
00
00
00
00
00
ENDCHAR
STARTCHAR C0041
ENCODING 65
SWIDTH 666 0
DWIDTH 8 0
BBX 8 16 0 -4
BITMAP
00
08
14
22
41
41
7f
41
41
41
00
00
00
00
00
00
ENDCHAR
STARTCHAR C0042
ENCODING 66
SWIDTH 666 0
DWIDTH 8 0
BBX 8 16 0 -4
BITMAP
00
7e
21
21
21
3e
21
21
21
7e
00
00
00
00
00
00
ENDCHAR
STARTCHAR C0043
ENCODING 67
SWIDTH 666 0
DWIDTH 8 0
BBX 8 16 0 -4
BITMAP
00
1e
21
40
40
40
40
40
21
1e
00
00
00
00
00
00
ENDCHAR
STARTCHAR C0044
ENCODING 68
SWIDTH 666 0
DWIDTH 8 0
BBX 8 16 0 -4
BITMAP
00
7c
22
21
21
21
21
21
22
7c
00
00
00
00
00
00
ENDCHAR
STARTCHAR C0045
ENCODING 69
SWIDTH 666 0
DWIDTH 8 0
BBX 8 16 0 -4
BITMAP
00
7f
40
40
40
7e
40
40
40
7f
00
00
00
00
00
00
ENDCHAR
STARTCHAR C0046
ENCODING 70
SWIDTH 666 0
DWIDTH 8 0
BBX 8 16 0 -4
BITMAP
00
7f
40
40
40
7e
40
40
40
40
00
00
00
00
00
00
ENDCHAR
STARTCHAR C0047
ENCODING 71
SWIDTH 666 0
DWIDTH 8 0
BBX 8 16 0 -4
BITMAP
00
1e
21
40
40
4f
41
41
21
1e
00
00
00
00
00
00
ENDCHAR
STARTCHAR C0048
ENCODING 72
SWIDTH 666 0
DWIDTH 8 0
BBX 8 16 0 -4
BITMAP
00
41
41
41
41
7f
41
41
41
41
00
00
00
00
00
00
ENDCHAR
STARTCHAR C0049
ENCODING 73
SWIDTH 666 0
DWIDTH 8 0
BBX 8 16 0 -4
BITMAP
00
3e
08
08
08
08
08
08
08
3e
00
00
00
00
00
00
ENDCHAR
STARTCHAR C004a
ENCODING 74
SWIDTH 666 0
DWIDTH 8 0
BBX 8 16 0 -4
BITMAP
00
02
02
02
02
02
02
42
42
3c
00
00
00
00
00
00
ENDCHAR
STARTCHAR C004b
ENCODING 75
SWIDTH 666 0
DWIDTH 8 0
BBX 8 16 0 -4
BITMAP
00
41
42
44
48
70
48
44
42
41
00
00
00
00
00
00
ENDCHAR
STARTCHAR C004c
ENCODING 76
SWIDTH 666 0
DWIDTH 8 0
BBX 8 16 0 -4
BITMAP
00
40
40
40
40
40
40
40
40
7f
00
00
00
00
00
00
ENDCHAR
STARTCHAR C004d
ENCODING 77
SWIDTH 666 0
DWIDTH 8 0
BBX 8 16 0 -4
BITMAP
00
41
63
55
49
49
41
41
41
41
00
00
00
00
00
00
ENDCHAR
STARTCHAR C004e
ENCODING 78
SWIDTH 666 0
DWIDTH 8 0
BBX 8 16 0 -4
BITMAP
00
41
41
61
51
49
45
43
41
41
00
00
00
00
00
00
ENDCHAR
STARTCHAR C004f
ENCODING 79
SWIDTH 666 0
DWIDTH 8 0
BBX 8 16 0 -4
BITMAP
00
1c
22
41
41
41
41
41
22
1c
00
00
00
00
00
00
ENDCHAR
STARTCHAR C0050
ENCODING 80
SWIDTH 666 0
DWIDTH 8 0
BBX 8 16 0 -4
BITMAP
00
7e
41
41
41
7e
40
40
40
40
00
00
00
00
00
00
ENDCHAR
STARTCHAR C0051
ENCODING 81
SWIDTH 666 0
DWIDTH 8 0
BBX 8 16 0 -4
BITMAP
00
1c
22
41
41
41
49
45
22
1d
00
00
00
00
00
00
ENDCHAR
STARTCHAR C0052
ENCODING 82
SWIDTH 666 0
DWIDTH 8 0
BBX 8 16 0 -4
BITMAP
00
7e
41
41
41
7e
48
44
42
41
00
00
00
00
00
00
ENDCHAR
STARTCHAR C0053
ENCODING 83
SWIDTH 666 0
DWIDTH 8 0
BBX 8 16 0 -4
BITMAP
00
3e
41
40
40
3e
01
01
41
3e
00
00
00
00
00
00
ENDCHAR
STARTCHAR C0054
ENCODING 84
SWIDTH 666 0
DWIDTH 8 0
BBX 8 16 0 -4
BITMAP
00
7f
08
08
08
08
08
08
08
08
00
00
00
00
00
00
ENDCHAR
STARTCHAR C0055
ENCODING 85
SWIDTH 666 0
DWIDTH 8 0
BBX 8 16 0 -4
BITMAP
00
41
41
41
41
41
41
41
41
3e
00
00
00
00
00
00
ENDCHAR
STARTCHAR C0056
ENCODING 86
SWIDTH 666 0
DWIDTH 8 0
BBX 8 16 0 -4
BITMAP
00
41
41
41
22
22
14
14
08
08
00
00
00
00
00
00
ENDCHAR
STARTCHAR C0057
ENCODING 87
SWIDTH 666 0
DWIDTH 8 0
BBX 8 16 0 -4
BITMAP
00
41
41
41
41
41
49
49
55
22
00
00
00
00
00
00
ENDCHAR
STARTCHAR C0058
ENCODING 88
SWIDTH 666 0
DWIDTH 8 0
BBX 8 16 0 -4
BITMAP
00
41
41
22
14
08
14
22
41
41
00
00
00
00
00
00
ENDCHAR
STARTCHAR C0059
ENCODING 89
SWIDTH 666 0
DWIDTH 8 0
BBX 8 16 0 -4
BITMAP
00
41
41
22
14
08
08
08
08
08
00
00
00
00
00
00
ENDCHAR
STARTCHAR C005a
ENCODING 90
SWIDTH 666 0
DWIDTH 8 0
BBX 8 16 0 -4
BITMAP
00
7f
01
02
04
08
10
20
40
7f
00
00
00
00
00
00
ENDCHAR
STARTCHAR C005b
ENCODING 91
SWIDTH 666 0
DWIDTH 8 0
BBX 8 16 0 -4
BITMAP
38
20
20
20
20
20
20
20
20
20
20
38
00
00
00
00
ENDCHAR
STARTCHAR C005c
ENCODING 92
SWIDTH 666 0
DWIDTH 8 0
BBX 8 16 0 -4
BITMAP
00
00
40
20
10
08
04
02
01
00
00
00
00
00
00
00
ENDCHAR
STARTCHAR C005d
ENCODING 93
SWIDTH 666 0
DWIDTH 8 0
BBX 8 16 0 -4
BITMAP
38
08
08
08
08
08
08
08
08
08
08
38
00
00
00
00
ENDCHAR
STARTCHAR C005e
ENCODING 94
SWIDTH 666 0
DWIDTH 8 0
BBX 8 16 0 -4
BITMAP
00
08
14
22
00
00
00
00
00
00
00
00
00
00
00
00
ENDCHAR
STARTCHAR C005f
ENCODING 95
SWIDTH 666 0
DWIDTH 8 0
BBX 8 16 0 -4
BITMAP
00
00
00
00
00
00
00
00
00
7e
00
00
00
00
00
00
ENDCHAR
STARTCHAR C0060
ENCODING 96
SWIDTH 666 0
DWIDTH 8 0
BBX 8 16 0 -4
BITMAP
00
18
18
08
04
00
00
00
00
00
00
00
00
00
00
00
ENDCHAR
STARTCHAR C0061
ENCODING 97
SWIDTH 666 0
DWIDTH 8 0
BBX 8 16 0 -4
BITMAP
00
00
00
3e
41
01
3f
41
43
3d
00
00
00
00
00
00
ENDCHAR
STARTCHAR C0062
ENCODING 98
SWIDTH 666 0
DWIDTH 8 0
BBX 8 16 0 -4
BITMAP
00
40
40
5c
62
41
41
41
62
5c
00
00
00
00
00
00
ENDCHAR
STARTCHAR C0063
ENCODING 99
SWIDTH 666 0
DWIDTH 8 0
BBX 8 16 0 -4
BITMAP
00
00
00
1e
21
40
40
40
21
1e
00
00
00
00
00
00
ENDCHAR
STARTCHAR C0064
ENCODING 100
SWIDTH 666 0
DWIDTH 8 0
BBX 8 16 0 -4
BITMAP
00
01
01
1d
23
41
41
41
23
1d
00
00
00
00
00
00
ENDCHAR
STARTCHAR C0065
ENCODING 101
SWIDTH 666 0
DWIDTH 8 0
BBX 8 16 0 -4
BITMAP
00
00
00
1c
22
41
7f
40
22
1c
00
00
00
00
00
00
ENDCHAR
STARTCHAR C0066
ENCODING 102
SWIDTH 666 0
DWIDTH 8 0
BBX 8 16 0 -4
BITMAP
00
07
08
7f
08
08
08
08
08
08
00
00
00
00
00
00
ENDCHAR
STARTCHAR C0067
ENCODING 103
SWIDTH 666 0
DWIDTH 8 0
BBX 8 16 0 -4
BITMAP
00
00
00
1d
23
41
41
41
23
1d
01
21
1e
00
00
00
ENDCHAR
STARTCHAR C0068
ENCODING 104
SWIDTH 666 0
DWIDTH 8 0
BBX 8 16 0 -4
BITMAP
00
40
40
5e
61
41
41
41
41
41
00
00
00
00
00
00
ENDCHAR
STARTCHAR C0069
ENCODING 105
SWIDTH 666 0
DWIDTH 8 0
BBX 8 16 0 -4
BITMAP
00
08
00
38
08
08
08
08
08
3e
00
00
00
00
00
00
ENDCHAR
STARTCHAR C006a
ENCODING 106
SWIDTH 666 0
DWIDTH 8 0
BBX 8 16 0 -4
BITMAP
00
08
00
38
08
08
08
08
08
08
08
48
30
00
00
00
ENDCHAR
STARTCHAR C006b
ENCODING 107
SWIDTH 666 0
DWIDTH 8 0
BBX 8 16 0 -4
BITMAP
00
40
40
42
44
48
70
48
44
42
00
00
00
00
00
00
ENDCHAR
STARTCHAR C006c
ENCODING 108
SWIDTH 666 0
DWIDTH 8 0
BBX 8 16 0 -4
BITMAP
00
10
10
10
10
10
10
10
10
0e
00
00
00
00
00
00
ENDCHAR
STARTCHAR C006d
ENCODING 109
SWIDTH 666 0
DWIDTH 8 0
BBX 8 16 0 -4
BITMAP
00
00
00
76
49
49
49
49
49
49
00
00
00
00
00
00
ENDCHAR
STARTCHAR C006e
ENCODING 110
SWIDTH 666 0
DWIDTH 8 0
BBX 8 16 0 -4
BITMAP
00
00
00
5e
61
41
41
41
41
41
00
00
00
00
00
00
ENDCHAR
STARTCHAR C006f
ENCODING 111
SWIDTH 666 0
DWIDTH 8 0
BBX 8 16 0 -4
BITMAP
00
00
00
1c
22
41
41
41
22
1c
00
00
00
00
00
00
ENDCHAR
STARTCHAR C0070
ENCODING 112
SWIDTH 666 0
DWIDTH 8 0
BBX 8 16 0 -4
BITMAP
00
00
00
5c
62
41
41
41
62
5c
40
40
40
00
00
00
ENDCHAR
STARTCHAR C0071
ENCODING 113
SWIDTH 666 0
DWIDTH 8 0
BBX 8 16 0 -4
BITMAP
00
00
00
1d
23
41
41
41
23
1d
01
01
01
00
00
00
ENDCHAR
STARTCHAR C0072
ENCODING 114
SWIDTH 666 0
DWIDTH 8 0
BBX 8 16 0 -4
BITMAP
00
00
00
2e
31
20
20
20
20
20
00
00
00
00
00
00
ENDCHAR
STARTCHAR C0073
ENCODING 115
SWIDTH 666 0
DWIDTH 8 0
BBX 8 16 0 -4
BITMAP
00
00
00
3e
41
40
3e
01
41
3e
00
00
00
00
00
00
ENDCHAR
STARTCHAR C0074
ENCODING 116
SWIDTH 666 0
DWIDTH 8 0
BBX 8 16 0 -4
BITMAP
00
08
08
7f
08
08
08
08
08
07
00
00
00
00
00
00
ENDCHAR
STARTCHAR C0075
ENCODING 117
SWIDTH 666 0
DWIDTH 8 0
BBX 8 16 0 -4
BITMAP
00
00
00
41
41
41
41
41
43
3d
00
00
00
00
00
00
ENDCHAR
STARTCHAR C0076
ENCODING 118
SWIDTH 666 0
DWIDTH 8 0
BBX 8 16 0 -4
BITMAP
00
00
00
41
41
41
41
22
14
08
00
00
00
00
00
00
ENDCHAR
STARTCHAR C0077
ENCODING 119
SWIDTH 666 0
DWIDTH 8 0
BBX 8 16 0 -4
BITMAP
00
00
00
41
41
41
49
49
55
22
00
00
00
00
00
00
ENDCHAR
STARTCHAR C0078
ENCODING 120
SWIDTH 666 0
DWIDTH 8 0
BBX 8 16 0 -4
BITMAP
00
00
00
41
22
14
08
14
22
41
00
00
00
00
00
00
ENDCHAR
STARTCHAR C0079
ENCODING 121
SWIDTH 666 0
DWIDTH 8 0
BBX 8 16 0 -4
BITMAP
00
00
00
41
41
22
22
14
14
08
08
10
60
00
00
00
ENDCHAR
STARTCHAR C007a
ENCODING 122
SWIDTH 666 0
DWIDTH 8 0
BBX 8 16 0 -4
BITMAP
00
00
00
7f
02
04
08
10
20
7f
00
00
00
00
00
00
ENDCHAR
STARTCHAR C007b
ENCODING 123
SWIDTH 666 0
DWIDTH 8 0
BBX 8 16 0 -4
BITMAP
0c
10
10
10
10
60
10
10
10
10
0c
00
00
00
00
00
ENDCHAR
STARTCHAR C007c
ENCODING 124
SWIDTH 666 0
DWIDTH 8 0
BBX 8 16 0 -4
BITMAP
00
08
08
08
08
08
08
08
08
08
00
00
00
00
00
00
ENDCHAR
STARTCHAR C007d
ENCODING 125
SWIDTH 666 0
DWIDTH 8 0
BBX 8 16 0 -4
BITMAP
60
10
10
10
10
0c
10
10
10
10
60
00
00
00
00
00
ENDCHAR
STARTCHAR C007e
ENCODING 126
SWIDTH 666 0
DWIDTH 8 0
BBX 8 16 0 -4
BITMAP
00
7e
00
00
00
00
00
00
00
00
00
00
00
00
00
00
ENDCHAR
STARTCHAR C007f
ENCODING 127
SWIDTH 666 0
DWIDTH 8 0
BBX 8 16 0 -4
BITMAP
00
00
00
49
12
24
49
12
24
49
00
00
00
00
00
00
ENDCHAR
STARTCHAR C0080
ENCODING 128
SWIDTH 666 0
DWIDTH 8 0
BBX 8 16 0 -4
BITMAP
00
00
00
10
18
14
18
10
00
00
00
00
00
00
00
00
ENDCHAR
STARTCHAR C0081
ENCODING 129
SWIDTH 666 0
DWIDTH 8 0
BBX 8 16 0 -4
BITMAP
00
3e
41
55
41
41
5d
49
41
3e
00
00
00
00
00
00
ENDCHAR
STARTCHAR C0082
ENCODING 130
SWIDTH 666 0
DWIDTH 8 0
BBX 8 16 0 -4
BITMAP
00
3e
7f
6b
7f
7f
63
77
3e
1c
00
00
00
00
00
00
ENDCHAR
STARTCHAR C0083
ENCODING 131
SWIDTH 666 0
DWIDTH 8 0
BBX 8 16 0 -4
BITMAP
00
00
36
7f
7f
7f
7f
3e
1c
08
00
00
00
00
00
00
ENDCHAR
STARTCHAR C0084
ENCODING 132
SWIDTH 666 0
DWIDTH 8 0
BBX 8 16 0 -4
BITMAP
00
00
08
1c
3e
7f
3e
1c
08
00
00
00
00
00
00
00
ENDCHAR
STARTCHAR C0085
ENCODING 133
SWIDTH 666 0
DWIDTH 8 0
BBX 8 16 0 -4
BITMAP
00
08
1c
1c
77
77
77
08
08
1c
00
00
00
00
00
00
ENDCHAR
STARTCHAR C0086
ENCODING 134
SWIDTH 666 0
DWIDTH 8 0
BBX 8 16 0 -4
BITMAP
00
08
1c
3e
7f
7f
3e
08
08
1c
00
00
00
00
00
00
ENDCHAR
STARTCHAR C0087
ENCODING 135
SWIDTH 666 0
DWIDTH 8 0
BBX 8 16 0 -4
BITMAP
00
00
00
18
3c
3c
18
00
00
00
00
00
00
00
00
00
ENDCHAR
STARTCHAR C0088
ENCODING 136
SWIDTH 666 0
DWIDTH 8 0
BBX 8 16 0 -4
BITMAP
00
7f
7f
63
41
41
63
7f
7f
00
00
00
00
00
00
00
ENDCHAR
STARTCHAR C0089
ENCODING 137
SWIDTH 666 0
DWIDTH 8 0
BBX 8 16 0 -4
BITMAP
00
00
0c
12
21
21
12
0c
00
00
00
00
00
00
00
00
ENDCHAR
STARTCHAR C008a
ENCODING 138
SWIDTH 666 0
DWIDTH 8 0
BBX 8 16 0 -4
BITMAP
00
ff
e7
db
bd
bd
db
e7
ff
00
00
00
00
00
00
00
ENDCHAR
STARTCHAR C008b
ENCODING 139
SWIDTH 666 0
DWIDTH 8 0
BBX 8 16 0 -4
BITMAP
00
0a
05
38
44
44
38
00
00
00
00
00
00
00
00
00
ENDCHAR
STARTCHAR C008c
ENCODING 140
SWIDTH 666 0
DWIDTH 8 0
BBX 8 16 0 -4
BITMAP
00
00
00
38
44
44
38
10
38
10
00
00
00
00
00
00
ENDCHAR
STARTCHAR C008d
ENCODING 141
SWIDTH 666 0
DWIDTH 8 0
BBX 8 16 0 -4
BITMAP
00
0c
0a
09
08
08
08
38
38
38
00
00
00
00
00
00
ENDCHAR
STARTCHAR C008e
ENCODING 142
SWIDTH 666 0
DWIDTH 8 0
BBX 8 16 0 -4
BITMAP
00
1c
12
19
15
13
11
71
71
77
07
07
00
00
00
00
ENDCHAR
STARTCHAR C008f
ENCODING 143
SWIDTH 666 0
DWIDTH 8 0
BBX 8 16 0 -4
BITMAP
00
00
08
5d
36
63
36
5d
08
00
00
00
00
00
00
00
ENDCHAR
STARTCHAR C0090
ENCODING 144
SWIDTH 666 0
DWIDTH 8 0
BBX 8 16 0 -4
BITMAP
00
00
00
60
7c
7f
7c
60
00
00
00
00
00
00
00
00
ENDCHAR
STARTCHAR C0091
ENCODING 145
SWIDTH 666 0
DWIDTH 8 0
BBX 8 16 0 -4
BITMAP
00
00
00
03
1f
7f
1f
03
00
00
00
00
00
00
00
00
ENDCHAR
STARTCHAR C0092
ENCODING 146
SWIDTH 666 0
DWIDTH 8 0
BBX 8 16 0 -4
BITMAP
00
0c
1e
3f
0c
0c
0c
3f
1e
0c
00
00
00
00
00
00
ENDCHAR
STARTCHAR C0093
ENCODING 147
SWIDTH 666 0
DWIDTH 8 0
BBX 8 16 0 -4
BITMAP
00
33
33
33
33
33
33
00
33
33
00
00
00
00
00
00
ENDCHAR
STARTCHAR C0094
ENCODING 148
SWIDTH 666 0
DWIDTH 8 0
BBX 8 16 0 -4
BITMAP
00
3f
52
52
32
12
12
12
12
12
00
00
00
00
00
00
ENDCHAR
STARTCHAR C0095
ENCODING 149
SWIDTH 666 0
DWIDTH 8 0
BBX 8 16 0 -4
BITMAP
00
00
00
06
0a
12
22
12
0a
06
00
00
00
00
00
00
ENDCHAR
STARTCHAR C0096
ENCODING 150
SWIDTH 666 0
DWIDTH 8 0
BBX 8 16 0 -4
BITMAP
00
00
00
00
00
00
00
7f
7f
7f
00
00
00
00
00
00
ENDCHAR
STARTCHAR C0097
ENCODING 151
SWIDTH 666 0
DWIDTH 8 0
BBX 8 16 0 -4
BITMAP
00
00
0c
1e
3f
0c
0c
0c
3f
1e
0c
00
3f
00
00
00
ENDCHAR
STARTCHAR C0098
ENCODING 152
SWIDTH 666 0
DWIDTH 8 0
BBX 8 16 0 -4
BITMAP
00
0c
1e
3f
0c
0c
0c
0c
0c
0c
00
00
00
00
00
00
ENDCHAR
STARTCHAR C0099
ENCODING 153
SWIDTH 666 0
DWIDTH 8 0
BBX 8 16 0 -4
BITMAP
00
0c
0c
0c
0c
0c
0c
3f
1e
0c
00
00
00
00
00
00
ENDCHAR
STARTCHAR C009a
ENCODING 154
SWIDTH 666 0
DWIDTH 8 0
BBX 8 16 0 -4
BITMAP
00
00
00
04
06
7f
06
04
00
00
00
00
00
00
00
00
ENDCHAR
STARTCHAR C009b
ENCODING 155
SWIDTH 666 0
DWIDTH 8 0
BBX 8 16 0 -4
BITMAP
00
00
00
10
30
7f
30
10
00
00
00
00
00
00
00
00
ENDCHAR
STARTCHAR C009c
ENCODING 156
SWIDTH 666 0
DWIDTH 8 0
BBX 8 16 0 -4
BITMAP
00
00
00
00
40
40
40
7f
00
00
00
00
00
00
00
00
ENDCHAR
STARTCHAR C009d
ENCODING 157
SWIDTH 666 0
DWIDTH 8 0
BBX 8 16 0 -4
BITMAP
00
00
00
14
36
7f
36
14
00
00
00
00
00
00
00
00
ENDCHAR
STARTCHAR C009e
ENCODING 158
SWIDTH 666 0
DWIDTH 8 0
BBX 8 16 0 -4
BITMAP
00
00
00
00
08
1c
3e
00
00
00
00
00
00
00
00
00
ENDCHAR
STARTCHAR C009f
ENCODING 159
SWIDTH 666 0
DWIDTH 8 0
BBX 8 16 0 -4
BITMAP
00
00
00
00
3e
1c
08
00
00
00
00
00
00
00
00
00
ENDCHAR
STARTCHAR C00a0
ENCODING 160
SWIDTH 666 0
DWIDTH 8 0
BBX 8 16 0 -4
BITMAP
00
00
00
04
08
10
08
04
00
00
00
00
00
00
00
00
ENDCHAR
STARTCHAR C00a1
ENCODING 161
SWIDTH 666 0
DWIDTH 8 0
BBX 8 16 0 -4
BITMAP
10
08
00
3e
41
01
3f
41
43
3d
00
00
00
00
00
00
ENDCHAR
STARTCHAR C00a2
ENCODING 162
SWIDTH 666 0
DWIDTH 8 0
BBX 8 16 0 -4
BITMAP
08
10
00
3e
41
01
3f
41
43
3d
00
00
00
00
00
00
ENDCHAR
STARTCHAR C00a3
ENCODING 163
SWIDTH 666 0
DWIDTH 8 0
BBX 8 16 0 -4
BITMAP
08
22
00
3e
41
01
3f
41
43
3d
00
00
00
00
00
00
ENDCHAR
STARTCHAR C00a4
ENCODING 164
SWIDTH 666 0
DWIDTH 8 0
BBX 8 16 0 -4
BITMAP
00
22
00
3e
41
01
3f
41
43
3d
00
00
00
00
00
00
ENDCHAR
STARTCHAR C00a5
ENCODING 165
SWIDTH 666 0
DWIDTH 8 0
BBX 8 16 0 -4
BITMAP
1c
22
1c
3e
41
01
3f
41
43
3d
00
00
00
00
00
00
ENDCHAR
STARTCHAR C00a6
ENCODING 166
SWIDTH 666 0
DWIDTH 8 0
BBX 8 16 0 -4
BITMAP
00
00
00
3e
41
01
3f
41
43
3d
08
12
0c
00
00
00
ENDCHAR
STARTCHAR C00a7
ENCODING 167
SWIDTH 666 0
DWIDTH 8 0
BBX 8 16 0 -4
BITMAP
32
4c
00
3e
41
01
3f
41
43
3d
00
00
00
00
00
00
ENDCHAR
STARTCHAR C00a8
ENCODING 168
SWIDTH 666 0
DWIDTH 8 0
BBX 8 16 0 -4
BITMAP
22
1c
00
3e
41
01
3f
41
43
3d
00
00
00
00
00
00
ENDCHAR
STARTCHAR C00a9
ENCODING 169
SWIDTH 666 0
DWIDTH 8 0
BBX 8 16 0 -4
BITMAP
00
00
00
36
49
09
3f
48
49
3e
00
00
00
00
00
00
ENDCHAR
STARTCHAR C00aa
ENCODING 170
SWIDTH 666 0
DWIDTH 8 0
BBX 8 16 0 -4
BITMAP
00
00
00
1e
21
40
40
40
21
1e
04
22
1c
00
00
00
ENDCHAR
STARTCHAR C00ab
ENCODING 171
SWIDTH 666 0
DWIDTH 8 0
BBX 8 16 0 -4
BITMAP
14
08
00
1e
21
40
40
40
21
1e
00
00
00
00
00
00
ENDCHAR
STARTCHAR C00ac
ENCODING 172
SWIDTH 666 0
DWIDTH 8 0
BBX 8 16 0 -4
BITMAP
08
10
00
1e
21
40
40
40
21
1e
00
00
00
00
00
00
ENDCHAR
STARTCHAR C00ad
ENCODING 173
SWIDTH 666 0
DWIDTH 8 0
BBX 8 16 0 -4
BITMAP
00
48
10
28
04
3e
41
41
21
1e
00
00
00
00
00
00
ENDCHAR
STARTCHAR C00ae
ENCODING 174
SWIDTH 666 0
DWIDTH 8 0
BBX 8 16 0 -4
BITMAP
01
03
01
1d
23
41
41
41
23
1d
00
00
00
00
00
00
ENDCHAR
STARTCHAR C00af
ENCODING 175
SWIDTH 666 0
DWIDTH 8 0
BBX 8 16 0 -4
BITMAP
14
09
01
1d
23
41
41
41
23
1d
00
00
00
00
00
00
ENDCHAR
STARTCHAR C00b0
ENCODING 176
SWIDTH 666 0
DWIDTH 8 0
BBX 8 16 0 -4
BITMAP
10
08
00
1c
22
41
7f
40
22
1c
00
00
00
00
00
00
ENDCHAR
STARTCHAR C00b1
ENCODING 177
SWIDTH 666 0
DWIDTH 8 0
BBX 8 16 0 -4
BITMAP
08
10
00
1c
22
41
7f
40
22
1c
00
00
00
00
00
00
ENDCHAR
STARTCHAR C00b2
ENCODING 178
SWIDTH 666 0
DWIDTH 8 0
BBX 8 16 0 -4
BITMAP
08
14
00
1c
22
41
7f
40
22
1c
00
00
00
00
00
00
ENDCHAR
STARTCHAR C00b3
ENCODING 179
SWIDTH 666 0
DWIDTH 8 0
BBX 8 16 0 -4
BITMAP
00
22
00
1c
22
41
7f
40
22
1c
00
00
00
00
00
00
ENDCHAR
STARTCHAR C00b4
ENCODING 180
SWIDTH 666 0
DWIDTH 8 0
BBX 8 16 0 -4
BITMAP
22
1c
00
1c
22
41
7f
40
22
1c
00
00
00
00
00
00
ENDCHAR
STARTCHAR C00b5
ENCODING 181
SWIDTH 666 0
DWIDTH 8 0
BBX 8 16 0 -4
BITMAP
00
00
00
1c
22
41
7f
40
22
1c
08
12
0c
00
00
00
ENDCHAR
STARTCHAR C00b6
ENCODING 182
SWIDTH 666 0
DWIDTH 8 0
BBX 8 16 0 -4
BITMAP
22
1c
00
1d
23
41
41
41
23
1d
01
21
1e
00
00
00
ENDCHAR
STARTCHAR C00b7
ENCODING 183
SWIDTH 666 0
DWIDTH 8 0
BBX 8 16 0 -4
BITMAP
00
00
00
08
28
08
08
08
08
3e
00
00
00
00
00
00
ENDCHAR
STARTCHAR C00b8
ENCODING 184
SWIDTH 666 0
DWIDTH 8 0
BBX 8 16 0 -4
BITMAP
08
14
00
08
28
08
08
08
08
3e
00
00
00
00
00
00
ENDCHAR
STARTCHAR C00b9
ENCODING 185
SWIDTH 666 0
DWIDTH 8 0
BBX 8 16 0 -4
BITMAP
10
08
00
08
28
08
08
08
08
3e
00
00
00
00
00
00
ENDCHAR
STARTCHAR C00ba
ENCODING 186
SWIDTH 666 0
DWIDTH 8 0
BBX 8 16 0 -4
BITMAP
14
08
00
08
28
08
08
08
08
3e
00
00
00
00
00
00
ENDCHAR
STARTCHAR C00bb
ENCODING 187
SWIDTH 666 0
DWIDTH 8 0
BBX 8 16 0 -4
BITMAP
00
22
00
08
28
08
08
08
08
3e
00
00
00
00
00
00
ENDCHAR
STARTCHAR C00bc
ENCODING 188
SWIDTH 666 0
DWIDTH 8 0
BBX 8 16 0 -4
BITMAP
00
22
00
66
22
22
22
22
22
72
02
02
0c
00
00
00
ENDCHAR
STARTCHAR C00bd
ENCODING 189
SWIDTH 666 0
DWIDTH 8 0
BBX 8 16 0 -4
BITMAP
48
48
08
08
08
08
08
08
08
07
00
00
00
00
00
00
ENDCHAR
STARTCHAR C00be
ENCODING 190
SWIDTH 666 0
DWIDTH 8 0
BBX 8 16 0 -4
BITMAP
00
08
0a
08
28
08
08
08
08
07
00
00
00
00
00
00
ENDCHAR
STARTCHAR C00bf
ENCODING 191
SWIDTH 666 0
DWIDTH 8 0
BBX 8 16 0 -4
BITMAP
0a
04
10
10
10
10
10
10
10
0e
00
00
00
00
00
00
ENDCHAR
STARTCHAR C00c0
ENCODING 192
SWIDTH 666 0
DWIDTH 8 0
BBX 8 16 0 -4
BITMAP
14
08
00
5e
61
41
41
41
41
41
00
00
00
00
00
00
ENDCHAR
STARTCHAR C00c1
ENCODING 193
SWIDTH 666 0
DWIDTH 8 0
BBX 8 16 0 -4
BITMAP
08
10
00
5e
61
41
41
41
41
41
00
00
00
00
00
00
ENDCHAR
STARTCHAR C00c2
ENCODING 194
SWIDTH 666 0
DWIDTH 8 0
BBX 8 16 0 -4
BITMAP
32
4c
00
5e
61
41
41
41
41
41
00
00
00
00
00
00
ENDCHAR
STARTCHAR C00c3
ENCODING 195
SWIDTH 666 0
DWIDTH 8 0
BBX 8 16 0 -4
BITMAP
10
08
00
1c
22
41
41
41
22
1c
00
00
00
00
00
00
ENDCHAR
STARTCHAR C00c4
ENCODING 196
SWIDTH 666 0
DWIDTH 8 0
BBX 8 16 0 -4
BITMAP
08
10
00
1c
22
41
41
41
22
1c
00
00
00
00
00
00
ENDCHAR
STARTCHAR C00c5
ENCODING 197
SWIDTH 666 0
DWIDTH 8 0
BBX 8 16 0 -4
BITMAP
08
14
00
1c
22
41
41
41
22
1c
00
00
00
00
00
00
ENDCHAR
STARTCHAR C00c6
ENCODING 198
SWIDTH 666 0
DWIDTH 8 0
BBX 8 16 0 -4
BITMAP
00
22
00
1c
22
41
41
41
22
1c
00
00
00
00
00
00
ENDCHAR
STARTCHAR C00c7
ENCODING 199
SWIDTH 666 0
DWIDTH 8 0
BBX 8 16 0 -4
BITMAP
32
4c
00
1c
22
41
41
41
22
1c
00
00
00
00
00
00
ENDCHAR
STARTCHAR C00c8
ENCODING 200
SWIDTH 666 0
DWIDTH 8 0
BBX 8 16 0 -4
BITMAP
00
00
00
1d
22
45
49
51
22
5c
00
00
00
00
00
00
ENDCHAR
STARTCHAR C00c9
ENCODING 201
SWIDTH 666 0
DWIDTH 8 0
BBX 8 16 0 -4
BITMAP
22
22
00
1c
22
41
41
41
22
1c
00
00
00
00
00
00
ENDCHAR
STARTCHAR C00ca
ENCODING 202
SWIDTH 666 0
DWIDTH 8 0
BBX 8 16 0 -4
BITMAP
00
00
00
36
49
49
4f
48
49
36
00
00
00
00
00
00
ENDCHAR
STARTCHAR C00cb
ENCODING 203
SWIDTH 666 0
DWIDTH 8 0
BBX 8 16 0 -4
BITMAP
00
00
40
5c
62
41
41
41
62
5c
40
40
40
00
00
00
ENDCHAR
STARTCHAR C00cc
ENCODING 204
SWIDTH 666 0
DWIDTH 8 0
BBX 8 16 0 -4
BITMAP
14
08
00
2e
31
20
20
20
20
20
00
00
00
00
00
00
ENDCHAR
STARTCHAR C00cd
ENCODING 205
SWIDTH 666 0
DWIDTH 8 0
BBX 8 16 0 -4
BITMAP
08
10
00
2e
31
20
20
20
20
20
20
00
00
00
00
00
ENDCHAR
STARTCHAR C00ce
ENCODING 206
SWIDTH 666 0
DWIDTH 8 0
BBX 8 16 0 -4
BITMAP
14
08
00
3e
41
40
3e
01
41
3e
00
00
00
00
00
00
ENDCHAR
STARTCHAR C00cf
ENCODING 207
SWIDTH 666 0
DWIDTH 8 0
BBX 8 16 0 -4
BITMAP
08
10
00
3e
41
40
3e
01
41
3e
00
00
00
00
00
00
ENDCHAR
STARTCHAR C00d0
ENCODING 208
SWIDTH 666 0
DWIDTH 8 0
BBX 8 16 0 -4
BITMAP
00
00
00
3e
41
40
3e
01
41
3e
04
22
1c
00
00
00
ENDCHAR
STARTCHAR C00d1
ENCODING 209
SWIDTH 666 0
DWIDTH 8 0
BBX 8 16 0 -4
BITMAP
00
3c
42
42
4c
42
42
42
42
4c
00
00
00
00
00
00
ENDCHAR
STARTCHAR C00d2
ENCODING 210
SWIDTH 666 0
DWIDTH 8 0
BBX 8 16 0 -4
BITMAP
00
08
08
7f
08
08
08
08
08
06
01
21
0e
00
00
00
ENDCHAR
STARTCHAR C00d3
ENCODING 211
SWIDTH 666 0
DWIDTH 8 0
BBX 8 16 0 -4
BITMAP
0a
04
10
7c
10
10
10
10
10
0e
00
00
00
00
00
00
ENDCHAR
STARTCHAR C00d4
ENCODING 212
SWIDTH 666 0
DWIDTH 8 0
BBX 8 16 0 -4
BITMAP
10
08
00
41
41
41
41
41
43
3d
00
00
00
00
00
00
ENDCHAR
STARTCHAR C00d5
ENCODING 213
SWIDTH 666 0
DWIDTH 8 0
BBX 8 16 0 -4
BITMAP
08
10
00
41
41
41
41
41
43
3d
00
00
00
00
00
00
ENDCHAR
STARTCHAR C00d6
ENCODING 214
SWIDTH 666 0
DWIDTH 8 0
BBX 8 16 0 -4
BITMAP
08
14
00
41
41
41
41
41
43
3d
00
00
00
00
00
00
ENDCHAR
STARTCHAR C00d7
ENCODING 215
SWIDTH 666 0
DWIDTH 8 0
BBX 8 16 0 -4
BITMAP
00
22
00
41
41
41
41
41
43
3d
00
00
00
00
00
00
ENDCHAR
STARTCHAR C00d8
ENCODING 216
SWIDTH 666 0
DWIDTH 8 0
BBX 8 16 0 -4
BITMAP
1c
22
1c
41
41
41
41
41
43
3d
00
00
00
00
00
00
ENDCHAR
STARTCHAR C00d9
ENCODING 217
SWIDTH 666 0
DWIDTH 8 0
BBX 8 16 0 -4
BITMAP
21
42
00
41
41
41
41
41
43
3d
00
00
00
00
00
00
ENDCHAR
STARTCHAR C00da
ENCODING 218
SWIDTH 666 0
DWIDTH 8 0
BBX 8 16 0 -4
BITMAP
08
10
00
41
41
22
22
14
14
08
08
10
60
00
00
00
ENDCHAR
STARTCHAR C00db
ENCODING 219
SWIDTH 666 0
DWIDTH 8 0
BBX 8 16 0 -4
BITMAP
00
22
00
41
41
22
22
14
14
08
08
10
60
00
00
00
ENDCHAR
STARTCHAR C00dc
ENCODING 220
SWIDTH 666 0
DWIDTH 8 0
BBX 8 16 0 -4
BITMAP
14
08
00
7f
02
04
08
10
20
7f
00
00
00
00
00
00
ENDCHAR
STARTCHAR C00dd
ENCODING 221
SWIDTH 666 0
DWIDTH 8 0
BBX 8 16 0 -4
BITMAP
08
10
00
7f
02
04
08
10
20
7f
00
00
00
00
00
00
ENDCHAR
STARTCHAR C00de
ENCODING 222
SWIDTH 666 0
DWIDTH 8 0
BBX 8 16 0 -4
BITMAP
00
08
00
7f
02
04
08
10
20
7f
00
00
00
00
00
00
ENDCHAR
STARTCHAR C00df
ENCODING 223
SWIDTH 666 0
DWIDTH 8 0
BBX 8 16 0 -4
BITMAP
08
10
00
7f
40
40
7e
40
40
7f
00
00
00
00
00
00
ENDCHAR
STARTCHAR C00e0
ENCODING 224
SWIDTH 666 0
DWIDTH 8 0
BBX 8 16 0 -4
BITMAP
1c
22
1c
22
41
41
7f
41
41
41
00
00
00
00
00
00
ENDCHAR
STARTCHAR C00e1
ENCODING 225
SWIDTH 666 0
DWIDTH 8 0
BBX 8 16 0 -4
BITMAP
00
1f
24
44
44
47
7c
44
44
47
00
00
00
00
00
00
ENDCHAR
STARTCHAR C00e2
ENCODING 226
SWIDTH 666 0
DWIDTH 8 0
BBX 8 16 0 -4
BITMAP
00
7c
22
21
21
71
21
21
22
7c
00
00
00
00
00
00
ENDCHAR
STARTCHAR C00e3
ENCODING 227
SWIDTH 666 0
DWIDTH 8 0
BBX 8 16 0 -4
BITMAP
08
00
3e
08
08
08
08
08
08
3e
00
00
00
00
00
00
ENDCHAR
STARTCHAR C00e4
ENCODING 228
SWIDTH 666 0
DWIDTH 8 0
BBX 8 16 0 -4
BITMAP
00
11
31
11
11
11
11
11
11
16
00
00
00
00
00
00
ENDCHAR
STARTCHAR C00e5
ENCODING 229
SWIDTH 666 0
DWIDTH 8 0
BBX 8 16 0 -4
BITMAP
00
10
10
7c
10
10
10
10
10
0f
00
00
00
00
00
00
ENDCHAR
STARTCHAR C00e6
ENCODING 230
SWIDTH 666 0
DWIDTH 8 0
BBX 8 16 0 -4
BITMAP
00
1d
22
45
41
49
41
51
22
5c
00
00
00
00
00
00
ENDCHAR
STARTCHAR C00e7
ENCODING 231
SWIDTH 666 0
DWIDTH 8 0
BBX 8 16 0 -4
BITMAP
00
1f
24
44
44
47
44
44
24
1f
00
00
00
00
00
00
ENDCHAR
STARTCHAR C00e8
ENCODING 232
SWIDTH 666 0
DWIDTH 8 0
BBX 8 16 0 -4
BITMAP
40
7e
41
41
41
7e
40
40
40
40
00
00
00
00
00
00
ENDCHAR
STARTCHAR C00e9
ENCODING 233
SWIDTH 666 0
DWIDTH 8 0
BBX 8 16 0 -4
BITMAP
41
08
14
22
41
41
7f
41
41
41
00
00
00
00
00
00
ENDCHAR
STARTCHAR C00ea
ENCODING 234
SWIDTH 666 0
DWIDTH 8 0
BBX 8 16 0 -4
BITMAP
41
1c
22
41
41
41
41
41
22
1c
00
00
00
00
00
00
ENDCHAR
STARTCHAR C00eb
ENCODING 235
SWIDTH 666 0
DWIDTH 8 0
BBX 8 16 0 -4
BITMAP
41
00
41
41
41
41
41
41
41
3e
00
00
00
00
00
00
ENDCHAR
STARTCHAR C00ec
ENCODING 236
SWIDTH 666 0
DWIDTH 8 0
BBX 8 16 0 -4
BITMAP
00
3e
41
40
3e
41
3e
01
41
3e
00
00
00
00
00
00
ENDCHAR
STARTCHAR C00ed
ENCODING 237
SWIDTH 666 0
DWIDTH 8 0
BBX 8 16 0 -4
BITMAP
00
08
3e
49
48
3e
09
49
3e
08
00
00
00
00
00
00
ENDCHAR
STARTCHAR C00ee
ENCODING 238
SWIDTH 666 0
DWIDTH 8 0
BBX 8 16 0 -4
BITMAP
00
07
08
08
1c
08
08
2c
4a
21
00
00
00
00
00
00
ENDCHAR
STARTCHAR C00ef
ENCODING 239
SWIDTH 666 0
DWIDTH 8 0
BBX 8 16 0 -4
BITMAP
00
1c
22
5d
55
5d
59
55
22
1c
00
00
00
00
00
00
ENDCHAR
STARTCHAR C00f0
ENCODING 240
SWIDTH 666 0
DWIDTH 8 0
BBX 8 16 0 -4
BITMAP
00
1c
22
5d
51
51
51
5d
22
1c
00
00
00
00
00
00
ENDCHAR
STARTCHAR C00f1
ENCODING 241
SWIDTH 666 0
DWIDTH 8 0
BBX 8 16 0 -4
BITMAP
00
1c
22
41
41
41
41
22
14
77
00
00
00
00
00
00
ENDCHAR
STARTCHAR C00f2
ENCODING 242
SWIDTH 666 0
DWIDTH 8 0
BBX 8 16 0 -4
BITMAP
00
00
00
41
41
41
41
41
43
3d
40
40
40
00
00
00
ENDCHAR
STARTCHAR C00f3
ENCODING 243
SWIDTH 666 0
DWIDTH 8 0
BBX 8 16 0 -4
BITMAP
00
1c
22
1c
00
00
00
00
00
00
00
00
00
00
00
00
ENDCHAR
STARTCHAR C00f4
ENCODING 244
SWIDTH 666 0
DWIDTH 8 0
BBX 8 16 0 -4
BITMAP
00
1e
21
40
40
40
40
40
21
1e
04
22
1c
00
00
00
ENDCHAR
STARTCHAR C00f5
ENCODING 245
SWIDTH 666 0
DWIDTH 8 0
BBX 8 16 0 -4
BITMAP
00
70
48
48
70
44
4f
44
44
43
00
00
00
00
00
00
ENDCHAR
STARTCHAR C00f6
ENCODING 246
SWIDTH 666 0
DWIDTH 8 0
BBX 8 16 0 -4
BITMAP
00
00
3f
54
14
14
14
14
14
14
00
00
00
00
00
00
ENDCHAR
STARTCHAR C00f7
ENCODING 247
SWIDTH 666 0
DWIDTH 8 0
BBX 8 16 0 -4
BITMAP
22
1c
00
00
00
00
00
00
00
00
00
00
00
00
00
00
ENDCHAR
STARTCHAR C00f8
ENCODING 248
SWIDTH 666 0
DWIDTH 8 0
BBX 8 16 0 -4
BITMAP
08
10
00
00
00
00
00
00
00
00
00
00
00
00
00
00
ENDCHAR
STARTCHAR C00f9
ENCODING 249
SWIDTH 666 0
DWIDTH 8 0
BBX 8 16 0 -4
BITMAP
41
41
00
00
00
00
00
00
00
00
00
00
00
00
00
00
ENDCHAR
STARTCHAR C00fa
ENCODING 250
SWIDTH 666 0
DWIDTH 8 0
BBX 8 16 0 -4
BITMAP
32
4c
00
41
61
51
49
45
43
41
00
00
00
00
00
00
ENDCHAR
STARTCHAR C00fb
ENCODING 251
SWIDTH 666 0
DWIDTH 8 0
BBX 8 16 0 -4
BITMAP
00
00
00
00
00
00
40
40
40
78
00
00
00
00
00
00
ENDCHAR
STARTCHAR C00fc
ENCODING 252
SWIDTH 666 0
DWIDTH 8 0
BBX 8 16 0 -4
BITMAP
00
00
00
00
00
00
08
08
08
78
00
00
00
00
00
00
ENDCHAR
STARTCHAR C00fd
ENCODING 253
SWIDTH 666 0
DWIDTH 8 0
BBX 8 16 0 -4
BITMAP
32
4c
00
00
00
00
00
00
00
00
00
00
00
00
00
00
ENDCHAR
STARTCHAR C00fe
ENCODING 254
SWIDTH 666 0
DWIDTH 8 0
BBX 8 16 0 -4
BITMAP
22
14
08
00
00
00
00
00
00
00
00
00
00
00
00
00
ENDCHAR
STARTCHAR C00ff
ENCODING 255
SWIDTH 666 0
DWIDTH 8 0
BBX 8 16 0 -4
BITMAP
00
0e
11
7c
10
10
10
10
10
70
00
00
00
00
00
00
ENDCHAR
ENDFONT
